# xmcd
#
# Track frame offsets:
#	150
#	13425
#	27834
#	44975
#	60759
#	77419
#	90736
#	107253
#	127211
#	145894
#	163083
#	184349
#
# Disc length: 2748 seconds
#
# Revision: 1
# Processed by: cddbd v1.5.1PL0 Copyright (c) Steve Scherf et al.
# Submitted via: audiograbber 1.83.01
#
DISCID=a10aba0c
DTITLE=Ryan James - Back To The Wind
DYEAR=2005
DGENRE=Country
TTITLE0=Goodbye Carolina
TTITLE1=Home On The Range
TTITLE2=Don't Go
TTITLE3=Home To Texas
TTITLE4=Stay With Me Awhile
TTITLE5=How Long
TTITLE6=A Broken Heart
TTITLE7=Take Your Time
TTITLE8=Barely Holding On
TTITLE9=(I'm A) Rambling Man
TTITLE10=Everything That Glitters (Is Not Gold)
TTITLE11=I Pray For You My Friend
EXTD=Produced by Tim Lorsch and Walt Wilkins
EXTT0=
EXTT1=
EXTT2=
EXTT3=
EXTT4=
EXTT5=
EXTT6=
EXTT7=
EXTT8=
EXTT9=
EXTT10=
EXTT11=
PLAYORDER=
